# xmcd
#
# Track frame offsets:
#	150
#	30113
#	68938
#	85617
#	105100
#	184454
#	273485
#	330918
#
# Disc length: 4617
#
# Revision: 2
# Processed by: cddbd v1.5.1PL0 Copyright (c) Steve Scherf et al.
# Submitted via: audiograbber 1.82.01
# Normalized: r1:TDELIM( - )
#
DISCID=59120708
DTITLE=Joe Walsh - 1973&1981 KBFH Radio
DYEAR=1900
DGENRE=
TTITLE0=Joe Walsh - Tend My Garden-1973
TTITLE1=Joe Walsh - Rocky Mountain Way
TTITLE2=Joe Walsh - The Bomber
TTITLE3=Joe Walsh - Turn To Stone
TTITLE4=Joe Walsh - Meadow-In The City-Life Of Illusion-Funk 49(Kbfh 1981)
TTITLE5=Joe Walsh - The Bomber-Theme From Island Of Weirdos-Rocky Mountain Way
TTITLE6=Joe Walsh - All Night Long-Get Back
TTITLE7=James Gang - James Gang-Walk Away-Fillmore 1970
EXTD=
EXTT0=
EXTT1=
EXTT2=
EXTT3=
EXTT4=
EXTT5=
EXTT6=
EXTT7=
PLAYORDER=
